<mxfile host="Electron" agent="Mozilla/5.0 (Windows NT 10.0; Win64; x64) AppleWebKit/537.36 (KHTML, like Gecko) draw.io/24.7.17 Chrome/128.0.6613.36 Electron/32.0.1 Safari/537.36" version="24.7.17">
  <diagram name="Page-1" id="nTLlA09EVrxatOfc7tLO">
    <mxGraphModel dx="1767" dy="806" grid="1" gridSize="10" guides="1" tooltips="1" connect="1" arrows="1" fold="1" page="0" pageScale="1" pageWidth="850" pageHeight="1100" math="0" shadow="0">
      <root>
        <mxCell id="0" />
        <mxCell id="1" parent="0" />
        <mxCell id="rbaXKDQwiB6LDJSXZRvu-4" value="" style="edgeStyle=orthogonalEdgeStyle;rounded=0;orthogonalLoop=1;jettySize=auto;html=1;" edge="1" parent="1" source="WeI27E1ue-abbr4WLW19-1" target="rbaXKDQwiB6LDJSXZRvu-3">
          <mxGeometry relative="1" as="geometry" />
        </mxCell>
        <mxCell id="WeI27E1ue-abbr4WLW19-1" value="เริ่ม" style="ellipse;whiteSpace=wrap;html=1;" parent="1" vertex="1">
          <mxGeometry x="330" y="70" width="160" height="80" as="geometry" />
        </mxCell>
        <mxCell id="rbaXKDQwiB6LDJSXZRvu-15" value="" style="edgeStyle=orthogonalEdgeStyle;rounded=0;orthogonalLoop=1;jettySize=auto;html=1;" edge="1" parent="1" source="rbaXKDQwiB6LDJSXZRvu-3" target="rbaXKDQwiB6LDJSXZRvu-14">
          <mxGeometry relative="1" as="geometry" />
        </mxCell>
        <mxCell id="rbaXKDQwiB6LDJSXZRvu-3" value="กำหนเตัวแปร 3 ตัวเพื่อเก็บตัวเลข" style="shape=parallelogram;perimeter=parallelogramPerimeter;whiteSpace=wrap;html=1;fixedSize=1;" vertex="1" parent="1">
          <mxGeometry x="315" y="200" width="190" height="60" as="geometry" />
        </mxCell>
        <mxCell id="rbaXKDQwiB6LDJSXZRvu-11" value="" style="edgeStyle=orthogonalEdgeStyle;rounded=0;orthogonalLoop=1;jettySize=auto;html=1;" edge="1" parent="1" source="rbaXKDQwiB6LDJSXZRvu-5" target="rbaXKDQwiB6LDJSXZRvu-10">
          <mxGeometry relative="1" as="geometry" />
        </mxCell>
        <mxCell id="rbaXKDQwiB6LDJSXZRvu-5" value="รับค่าตัวเลขจากผู้ใช้" style="shape=parallelogram;perimeter=parallelogramPerimeter;whiteSpace=wrap;html=1;fixedSize=1;" vertex="1" parent="1">
          <mxGeometry x="307.5" y="430" width="205" height="60" as="geometry" />
        </mxCell>
        <mxCell id="rbaXKDQwiB6LDJSXZRvu-13" value="" style="edgeStyle=orthogonalEdgeStyle;rounded=0;orthogonalLoop=1;jettySize=auto;html=1;" edge="1" parent="1" source="rbaXKDQwiB6LDJSXZRvu-10" target="rbaXKDQwiB6LDJSXZRvu-12">
          <mxGeometry relative="1" as="geometry" />
        </mxCell>
        <mxCell id="rbaXKDQwiB6LDJSXZRvu-10" value="นำตัวเลขที่รับมาเก็บไว้ในตัวแปรที่ตั้งไว้เพื่อเก็ยตัวเลข" style="whiteSpace=wrap;html=1;" vertex="1" parent="1">
          <mxGeometry x="311.25" y="560" width="197.5" height="60" as="geometry" />
        </mxCell>
        <mxCell id="rbaXKDQwiB6LDJSXZRvu-22" value="" style="edgeStyle=orthogonalEdgeStyle;rounded=0;orthogonalLoop=1;jettySize=auto;html=1;" edge="1" parent="1" source="rbaXKDQwiB6LDJSXZRvu-12" target="rbaXKDQwiB6LDJSXZRvu-21">
          <mxGeometry relative="1" as="geometry" />
        </mxCell>
        <mxCell id="rbaXKDQwiB6LDJSXZRvu-12" value="นำตัวแปรทั้งสามมาทำการบวกกันและเก็บไว้ในตัวแปรผลรวม" style="whiteSpace=wrap;html=1;" vertex="1" parent="1">
          <mxGeometry x="311.25" y="700" width="197.5" height="60" as="geometry" />
        </mxCell>
        <mxCell id="rbaXKDQwiB6LDJSXZRvu-16" value="" style="edgeStyle=orthogonalEdgeStyle;rounded=0;orthogonalLoop=1;jettySize=auto;html=1;" edge="1" parent="1" source="rbaXKDQwiB6LDJSXZRvu-14" target="rbaXKDQwiB6LDJSXZRvu-5">
          <mxGeometry relative="1" as="geometry" />
        </mxCell>
        <mxCell id="rbaXKDQwiB6LDJSXZRvu-14" value="กำหนเตัวแปร 1 ตัวเพื่อเก็บผลรวม" style="shape=parallelogram;perimeter=parallelogramPerimeter;whiteSpace=wrap;html=1;fixedSize=1;" vertex="1" parent="1">
          <mxGeometry x="315" y="310" width="190" height="60" as="geometry" />
        </mxCell>
        <mxCell id="rbaXKDQwiB6LDJSXZRvu-24" value="" style="edgeStyle=orthogonalEdgeStyle;rounded=0;orthogonalLoop=1;jettySize=auto;html=1;" edge="1" parent="1" source="rbaXKDQwiB6LDJSXZRvu-21" target="rbaXKDQwiB6LDJSXZRvu-23">
          <mxGeometry relative="1" as="geometry" />
        </mxCell>
        <mxCell id="rbaXKDQwiB6LDJSXZRvu-21" value="แสดงค่าตัวแปรผลรวมที่คำนวณ" style="shape=parallelogram;perimeter=parallelogramPerimeter;whiteSpace=wrap;html=1;fixedSize=1;" vertex="1" parent="1">
          <mxGeometry x="300" y="820" width="220" height="60" as="geometry" />
        </mxCell>
        <mxCell id="rbaXKDQwiB6LDJSXZRvu-26" value="" style="edgeStyle=orthogonalEdgeStyle;rounded=0;orthogonalLoop=1;jettySize=auto;html=1;" edge="1" parent="1" source="rbaXKDQwiB6LDJSXZRvu-23" target="rbaXKDQwiB6LDJSXZRvu-25">
          <mxGeometry relative="1" as="geometry" />
        </mxCell>
        <mxCell id="rbaXKDQwiB6LDJSXZRvu-23" value="แสดงค่าตัวแปรผลรวมที่คำนวณ" style="shape=parallelogram;perimeter=parallelogramPerimeter;whiteSpace=wrap;html=1;fixedSize=1;" vertex="1" parent="1">
          <mxGeometry x="300" y="960" width="220" height="60" as="geometry" />
        </mxCell>
        <mxCell id="rbaXKDQwiB6LDJSXZRvu-28" value="" style="edgeStyle=orthogonalEdgeStyle;rounded=0;orthogonalLoop=1;jettySize=auto;html=1;" edge="1" parent="1" source="rbaXKDQwiB6LDJSXZRvu-25" target="rbaXKDQwiB6LDJSXZRvu-27">
          <mxGeometry relative="1" as="geometry" />
        </mxCell>
        <mxCell id="rbaXKDQwiB6LDJSXZRvu-25" value="Answer = ....." style="shape=parallelogram;perimeter=parallelogramPerimeter;whiteSpace=wrap;html=1;fixedSize=1;" vertex="1" parent="1">
          <mxGeometry x="300" y="1100" width="220" height="60" as="geometry" />
        </mxCell>
        <mxCell id="rbaXKDQwiB6LDJSXZRvu-27" value="เริ่ม" style="ellipse;whiteSpace=wrap;html=1;" vertex="1" parent="1">
          <mxGeometry x="330" y="1220" width="160" height="80" as="geometry" />
        </mxCell>
      </root>
    </mxGraphModel>
  </diagram>
</mxfile>
